<svg xmlns="http://www.w3.org/2000/svg" viewBox="0 0 800 500">
  <rect width="800" height="500" rx="32" fill="#e8f6f2"/>
  <rect x="120" y="92" width="560" height="316" rx="28" fill="#fff" stroke="#b6ded5" stroke-width="8"/>
  <rect x="120" y="92" width="560" height="82" rx="28" fill="#13a889"/>
  <rect x="120" y="144" width="560" height="30" fill="#13a889"/>
  <circle cx="230" cy="280" r="66" fill="#d9f1eb"/>
  <circle cx="230" cy="264" r="24" fill="#13a889"/>
  <path d="M184 330c10-34 82-34 92 0" fill="#13a889"/>
  <rect x="350" y="230" width="210" height="22" rx="11" fill="#b8dcd4"/>
  <rect x="350" y="276" width="160" height="18" rx="9" fill="#d9ebe7"/>
  <rect x="350" y="316" width="190" height="18" rx="9" fill="#d9ebe7"/>
  <circle cx="612" cy="334" r="28" fill="#f5c768"/>
  <path d="M612 314l6 13 14 2-10 10 3 14-13-7-13 7 3-14-10-10 14-2z" fill="#fff"/>
  <text x="160" y="143" fill="#fff" font-size="26" font-family="Arial, sans-serif" font-weight="700">CAMPUS ID</text>
</svg>
